<?xml version="1.0" standalone="no"?>
<!DOCTYPE svg PUBLIC "-//W3C//DTD SVG 20010904//EN"
 "http://www.w3.org/TR/2001/REC-SVG-20010904/DTD/svg10.dtd">
<svg version="1.0" xmlns="http://www.w3.org/2000/svg"
 width="260.000000pt" height="260.000000pt" viewBox="0 0 260.000000 260.000000"
 preserveAspectRatio="xMidYMid meet">
<metadata>
Created by potrace 1.11, written by Peter Selinger 2001-2013
</metadata>
<g transform="translate(0.000000,260.000000) scale(0.100000,-0.100000)"
fill="#000000" stroke="none">
<path d="M253 2586 c-102 -33 -176 -97 -222 -195 l-26 -56 0 -1035 0 -1035 26
-56 c37 -79 90 -133 167 -171 l67 -33 1035 0 1035 0 67 33 c77 38 130 92 167
171 l26 56 0 1036 0 1035 -34 67 c-40 79 -91 129 -170 166 l-56 26 -1020 2
c-825 2 -1028 -1 -1062 -11z"/>
</g>
</svg>
